<?xml version="1.0" standalone="no"?>
<!DOCTYPE svg PUBLIC "-//W3C//DTD SVG 20010904//EN"
 "http://www.w3.org/TR/2001/REC-SVG-20010904/DTD/svg10.dtd">
<svg version="1.0" xmlns="http://www.w3.org/2000/svg"
 width="900.000000pt" height="897.000000pt" viewBox="0 0 900.000000 897.000000"
 preserveAspectRatio="xMidYMid meet">
<metadata>
Created by potrace 1.10, written by Peter Selinger 2001-2011
</metadata>
<g transform="translate(-30.000000,897.000000) scale(0.100000,-0.100000)"
fill="#000000" stroke="none">
<path d="M1613 6883 c-10 -4 -13 -509 -13 -2478 0 -1528 4 -2476 9 -2480 6 -3
546 -5 1202 -5 1125 0 1192 1 1205 17 13 17 114 178 142 226 7 12 22 36 32 52
11 17 24 39 30 50 6 11 18 32 28 47 9 15 58 93 107 173 50 80 98 158 107 173
9 15 23 37 30 49 17 30 218 357 240 391 10 15 22 36 28 47 6 11 18 32 28 47 9
15 64 104 122 198 58 94 113 183 122 198 10 15 22 36 28 47 6 11 18 32 28 47
9 15 58 93 107 173 50 80 98 158 107 173 9 15 23 37 30 49 7 13 52 88 101 167
63 103 85 149 81 162 -4 11 -36 66 -71 124 -36 58 -70 114 -76 125 -7 11 -23
38 -37 60 -14 22 -29 47 -33 55 -4 8 -16 29 -27 45 -11 17 -24 39 -30 50 -6
11 -18 32 -28 47 -9 15 -71 115 -137 223 -66 108 -128 208 -137 223 -10 15
-22 36 -28 47 -6 11 -18 32 -28 47 -18 29 -245 399 -265 433 -7 11 -23 38 -37
60 -14 22 -29 47 -33 55 -4 8 -16 29 -27 45 -11 17 -24 39 -30 50 -6 11 -18
32 -28 47 -9 14 -71 115 -137 223 -66 108 -128 208 -137 223 -10 15 -22 36
-28 47 -6 11 -18 32 -28 47 -9 15 -37 60 -61 100 -24 40 -51 81 -59 91 -14 16
-83 17 -1201 16 -652 0 -1192 -3 -1198 -6z m1677 -1421 c0 -16 17 -75 45 -152
7 -19 21 -62 30 -95 10 -33 23 -76 30 -95 7 -19 18 -51 24 -70 7 -19 17 -48
21 -65 40 -136 54 -180 76 -232 l14 -33 400 0 c220 0 400 -4 400 -8 0 -15 -25
-39 -75 -73 -27 -18 -111 -78 -186 -134 -75 -55 -191 -140 -258 -188 -66 -49
-121 -93 -121 -100 0 -11 15 -60 35 -117 7 -19 34 -102 60 -185 26 -82 53
-166 60 -185 10 -30 70 -219 81 -257 10 -36 -33 -12 -197 109 -100 73 -243
179 -319 235 -136 100 -138 101 -163 85 -53 -35 -128 -89 -292 -210 -93 -69
-192 -142 -220 -162 -27 -20 -67 -48 -87 -63 -20 -15 -39 -24 -42 -19 -4 7 37
145 69 232 7 19 27 82 45 140 18 58 38 121 45 140 36 100 75 229 75 252 0 25
-6 30 -135 118 -12 8 -73 53 -136 99 -111 83 -136 101 -287 210 -40 30 -71 59
-69 65 3 8 120 12 402 16 l397 5 35 110 c19 61 41 126 48 145 7 19 27 82 45
140 18 58 38 121 45 140 7 19 23 69 35 110 13 41 29 85 37 98 15 24 33 21 33
-6z"/>
<path d="M4644 6876 c-4 -11 79 -159 178 -314 10 -15 22 -36 28 -47 6 -11 18
-32 28 -47 9 -15 64 -104 122 -198 58 -94 113 -183 122 -198 10 -15 22 -36 28
-47 6 -11 19 -33 30 -50 10 -16 25 -40 32 -52 18 -30 189 -308 210 -341 10
-15 22 -36 28 -47 6 -11 18 -32 28 -47 9 -15 71 -115 137 -223 66 -108 128
-208 137 -223 9 -15 23 -37 30 -49 16 -28 247 -404 270 -441 10 -15 22 -36 28
-47 23 -42 38 -67 49 -78 14 -14 14 -50 0 -64 -6 -6 -16 -21 -23 -32 -10 -19
-198 -326 -238 -389 -9 -15 -23 -37 -30 -49 -12 -21 -172 -280 -210 -341 -9
-15 -23 -37 -30 -49 -13 -22 -207 -338 -240 -391 -9 -15 -23 -37 -30 -49 -15
-26 -185 -301 -210 -341 -10 -15 -22 -36 -28 -47 -6 -11 -18 -32 -28 -47 -24
-37 -164 -263 -180 -291 -7 -12 -21 -34 -30 -49 -9 -15 -55 -89 -101 -165 -46
-76 -91 -146 -98 -155 -8 -9 -13 -24 -11 -33 3 -16 28 -17 278 -17 l274 1 21
28 c11 15 25 35 30 45 11 19 149 242 177 286 10 15 22 36 28 47 6 11 18 32 28
47 9 15 58 93 107 173 50 80 98 158 107 173 10 15 22 36 28 47 6 11 18 32 28
47 9 14 51 81 92 148 41 66 83 133 92 148 10 15 22 36 28 47 6 11 18 32 28 47
9 14 51 81 92 148 41 66 83 133 92 148 10 15 22 36 28 47 6 11 18 32 28 47 9
14 51 81 92 148 41 66 83 133 92 148 10 15 22 36 28 47 6 11 18 32 28 47 9 14
51 81 92 148 41 66 83 133 92 148 10 15 22 37 27 49 5 11 15 24 20 28 14 8 14
68 0 82 -11 11 -26 36 -49 78 -6 11 -18 32 -28 47 -9 15 -57 93 -107 173 -49
81 -98 158 -107 173 -10 15 -22 36 -28 47 -6 11 -18 32 -28 47 -9 15 -71 115
-137 223 -66 108 -128 208 -137 223 -10 15 -22 36 -28 47 -6 11 -18 32 -28 47
-9 15 -71 115 -137 223 -66 108 -128 208 -137 223 -10 15 -22 36 -28 47 -6 11
-18 32 -28 47 -9 15 -64 104 -122 198 -58 94 -113 183 -122 198 -10 15 -22 36
-28 47 -6 11 -19 34 -30 50 -10 17 -25 40 -32 52 -58 99 -153 249 -162 255 -6
4 -132 8 -279 8 -221 0 -269 -2 -273 -14z"/>
<path d="M5863 6882 c-11 -7 25 -77 99 -190 10 -15 22 -36 28 -47 6 -11 19
-33 30 -50 11 -16 24 -39 30 -50 6 -11 18 -32 28 -47 9 -15 71 -115 137 -223
66 -108 128 -208 137 -223 9 -15 23 -37 30 -50 17 -29 278 -455 300 -490 10
-15 22 -36 28 -47 6 -11 18 -32 28 -47 9 -15 71 -115 137 -223 66 -108 128
-208 137 -223 10 -15 22 -36 28 -47 6 -11 19 -33 30 -50 11 -16 24 -39 30 -50
6 -11 18 -32 28 -47 34 -54 210 -343 221 -365 10 -20 0 -40 -81 -173 -51 -83
-101 -163 -110 -178 -10 -15 -22 -36 -28 -47 -6 -11 -18 -32 -28 -47 -9 -15
-57 -93 -107 -173 -49 -81 -98 -158 -107 -173 -10 -15 -22 -36 -28 -47 -6 -11
-18 -32 -28 -47 -9 -15 -57 -92 -107 -173 -49 -80 -98 -158 -107 -173 -9 -15
-23 -37 -30 -49 -7 -13 -67 -111 -133 -218 -66 -107 -126 -205 -133 -218 -7
-12 -21 -34 -30 -49 -9 -15 -57 -93 -107 -173 -49 -80 -98 -158 -107 -173 -10
-15 -22 -36 -28 -47 -6 -11 -18 -32 -28 -47 -62 -96 -162 -266 -162 -276 0 -7
8 -12 18 -12 121 -3 534 0 540 4 5 3 55 82 113 176 57 94 112 183 121 198 9
15 23 37 30 49 15 26 185 301 210 341 10 15 22 36 28 47 6 11 18 32 28 47 9
15 51 82 92 148 41 67 83 134 92 148 10 15 22 36 28 47 6 11 18 32 28 47 9 15
58 93 107 173 50 80 98 158 107 173 10 15 21 34 25 42 4 8 19 33 33 55 14 22
30 49 37 60 13 23 179 292 205 333 9 15 23 37 30 49 7 13 55 90 106 173 50 83
92 157 92 165 0 8 -48 93 -107 190 -60 96 -114 185 -121 197 -7 13 -22 37 -32
53 -11 17 -24 39 -30 50 -6 11 -18 32 -28 47 -9 15 -64 104 -122 198 -58 94
-113 183 -122 198 -10 15 -22 36 -28 47 -6 11 -19 34 -30 50 -11 17 -24 39
-30 50 -6 11 -19 34 -30 50 -10 17 -25 40 -32 52 -15 27 -185 302 -210 341
-10 15 -22 36 -28 47 -6 11 -19 34 -30 50 -11 17 -24 39 -30 50 -6 11 -18 32
-28 47 -9 15 -64 104 -122 198 -58 94 -113 183 -122 198 -10 15 -22 36 -28 47
-6 11 -19 34 -30 50 -10 17 -25 40 -32 52 -76 129 -132 214 -148 223 -22 12
-529 14 -547 2z"/>
</g>
</svg>
