<?xml version="1.0" standalone="no"?>
<!DOCTYPE svg PUBLIC "-//W3C//DTD SVG 20010904//EN"
 "http://www.w3.org/TR/2001/REC-SVG-20010904/DTD/svg10.dtd">
<svg version="1.0" xmlns="http://www.w3.org/2000/svg"
 width="300.000000pt" height="297.000000pt" viewBox="0 0 300.000000 297.000000"
 preserveAspectRatio="xMidYMid meet">
<metadata>
Created by potrace 1.10, written by Peter Selinger 2001-2011
</metadata>
<g transform="translate(-5.000000,297.000000) scale(0.100000,-0.100000)"
fill="#000000" stroke="none">
<path d="M1415 2514 c-106 -14 -179 -30 -253 -55 -401 -136 -686 -512 -709
-939 -23 -420 206 -812 582 -996 347 -170 743 -141 1068 77 137 93 293 280
362 434 145 326 115 703 -80 1007 -65 101 -230 260 -333 322 -96 57 -226 108
-334 130 -78 16 -249 28 -303 20z m-60 -797 c76 -252 142 -454 146 -450 4 5
69 215 145 468 76 253 140 463 143 467 5 6 381 -1203 381 -1224 0 -5 -15 -8
-33 -8 l-33 0 -32 113 c-74 253 -158 357 -288 357 -95 0 -160 -59 -243 -219
l-49 -95 -42 85 c-82 164 -152 229 -244 229 -130 0 -219 -114 -293 -374 l-27
-96 -33 0 c-18 0 -33 3 -33 6 0 6 330 1075 367 1189 13 39 17 45 23 30 4 -11
69 -226 145 -478z"/>
</g>
</svg>
