<?xml version="1.0" standalone="no"?>
<!DOCTYPE svg PUBLIC "-//W3C//DTD SVG 20010904//EN"
 "http://www.w3.org/TR/2001/REC-SVG-20010904/DTD/svg10.dtd">
<svg version="1.0" xmlns="http://www.w3.org/2000/svg"
 width="900.000000pt" height="897.000000pt" viewBox="0 0 900.000000 897.000000"
 preserveAspectRatio="xMidYMid meet">
<metadata>
Created by potrace 1.10, written by Peter Selinger 2001-2011
</metadata>
<g transform="translate(-4.000000,897.000000) scale(0.100000,-0.100000)"
fill="#000000" stroke="none">
<path d="M1576 7524 c-13 -13 -16 -42 -16 -162 1 -96 5 -154 13 -168 10 -18
54 -68 162 -188 6 -6 42 -47 80 -91 39 -44 73 -82 76 -85 3 -3 63 -69 133
-148 l126 -143 0 -2233 c0 -1775 -3 -2236 -12 -2244 -7 -6 -40 -18 -73 -27
-33 -9 -84 -23 -112 -31 -29 -8 -78 -21 -108 -29 -30 -9 -79 -22 -107 -30 -29
-7 -102 -28 -163 -45 -60 -17 -128 -36 -150 -42 -22 -6 -46 -15 -52 -21 -18
-13 -18 -368 -1 -385 18 -18 2261 -17 2276 1 13 16 18 375 5 387 -4 4 -28 13
-53 18 -43 10 -106 27 -215 56 -27 8 -104 28 -170 46 -66 17 -142 37 -170 44
-88 23 -102 33 -169 119 l-66 85 0 1776 c0 977 4 1776 8 1776 5 0 32 -28 60
-62 28 -35 61 -74 74 -88 13 -14 41 -48 63 -75 36 -46 74 -90 100 -119 6 -6
80 -94 165 -196 85 -102 204 -243 263 -315 60 -71 128 -152 151 -180 22 -27
68 -81 102 -120 33 -38 150 -178 261 -310 111 -132 254 -303 319 -380 65 -77
186 -221 268 -320 83 -99 156 -185 161 -191 6 -6 28 -32 50 -59 22 -27 56 -67
76 -90 19 -22 80 -94 135 -160 217 -260 359 -430 369 -441 6 -6 28 -32 50 -59
22 -27 58 -70 80 -95 22 -25 58 -68 80 -95 22 -27 116 -139 209 -249 235 -281
250 -298 261 -310 12 -13 101 -120 160 -191 134 -163 218 -255 233 -255 166
-3 405 1 412 5 7 4 10 967 10 2710 0 2382 2 2705 15 2718 8 9 29 18 47 22 18
4 51 13 73 20 22 8 87 28 145 45 58 18 116 35 130 40 14 5 59 18 100 30 41 12
86 25 100 30 14 5 59 18 100 30 41 12 81 29 88 38 13 17 18 354 6 386 -6 14
-117 16 -1165 16 -1135 0 -1159 0 -1169 -19 -13 -25 -14 -370 -1 -404 10 -26
50 -43 156 -67 28 -6 76 -18 108 -26 31 -7 83 -20 115 -28 365 -90 345 -81
420 -178 l62 -81 0 -1704 c0 -937 -3 -1703 -7 -1703 -5 0 -84 91 -178 202 -93
111 -214 254 -268 317 -55 64 -106 125 -116 136 -15 19 -133 159 -315 375 -44
52 -132 156 -196 230 -63 75 -135 160 -160 190 -25 30 -72 86 -105 125 -34 38
-110 129 -170 200 -60 72 -111 132 -115 135 -3 3 -64 75 -135 160 -71 85 -181
216 -245 291 -249 293 -430 507 -489 579 -35 41 -77 91 -94 110 -18 19 -50 58
-72 85 -22 27 -47 57 -55 66 -8 8 -24 26 -35 40 -54 65 -281 335 -290 345 -5
6 -30 35 -55 64 -25 30 -85 101 -135 160 -49 59 -110 131 -135 160 -151 180
-235 272 -257 281 -14 5 -241 9 -533 9 -449 0 -510 -2 -524 -16z"/>
</g>
</svg>
