<?xml version="1.0" standalone="no"?>
<!DOCTYPE svg PUBLIC "-//W3C//DTD SVG 20010904//EN"
 "http://www.w3.org/TR/2001/REC-SVG-20010904/DTD/svg10.dtd">
<svg version="1.0" xmlns="http://www.w3.org/2000/svg"
 width="300.000000pt" height="300.000000pt" viewBox="0 0 300.000000 300.000000"
 preserveAspectRatio="xMidYMid meet">
<metadata>
Created by potrace 1.10, written by Peter Selinger 2001-2011
</metadata>
<g transform="translate(0.000000,300.000000) scale(0.100000,-0.100000)"
fill="#000000" stroke="none">
<path d="M952 2467 l-92 -92 0 -93 0 -92 87 0 88 0 -88 -88 -87 -87 0 -788 0
-787 568 0 567 0 93 93 92 92 0 88 0 87 -92 0 -93 0 93 93 92 92 0 260 0 260
-90 90 -90 90 90 90 90 90 0 255 0 255 -93 93 -92 92 -475 0 -475 0 -93 -93z
m771 -365 l87 -87 0 -168 0 -167 -203 0 -202 0 -85 -85 c-47 -47 -88 -85 -92
-85 -5 0 -8 153 -8 340 l0 340 208 0 207 0 88 -88z m0 -880 l87 -87 0 -168 0
-167 -295 0 -295 0 0 255 0 255 208 0 207 0 88 -88z"/>
</g>
</svg>
