<?xml version="1.0" standalone="no"?>
<!DOCTYPE svg PUBLIC "-//W3C//DTD SVG 20010904//EN"
 "http://www.w3.org/TR/2001/REC-SVG-20010904/DTD/svg10.dtd">
<svg version="1.0" xmlns="http://www.w3.org/2000/svg"
 width="300.000000pt" height="301.000000pt" viewBox="0 0 307.000000 301.000000"
 preserveAspectRatio="xMidYMid meet">
<metadata>
Created by potrace 1.10, written by Peter Selinger 2001-2011
</metadata>
<g transform="translate(0.000000,301.000000) scale(0.050000,-0.050000)"
fill="#000000" stroke="none">
<path d="M1285 4595 l-185 -186 0 -184 0 -185 1735 0 1736 0 184 185 185 186
0 184 0 185 -1735 0 -1736 0 -184 -185z"/>
<path d="M1305 3215 l-165 -166 0 -204 0 -205 1713 0 1712 0 188 184 187 183
0 187 0 186 -1735 0 -1736 0 -164 -165z"/>
<path d="M1285 1795 l-185 -186 0 -184 0 -185 1734 0 1734 0 186 186 186 186
0 184 0 184 -1735 0 -1736 0 -184 -185z"/>
</g>
</svg>
